<?xml version="1.0" encoding="UTF-8" standalone="no"?>
<svg
   xmlns:dc="http://purl.org/dc/elements/1.1/"
   xmlns:cc="http://creativecommons.org/ns#"
   xmlns:rdf="http://www.w3.org/1999/02/22-rdf-syntax-ns#"
   xmlns:svg="http://www.w3.org/2000/svg"
   xmlns="http://www.w3.org/2000/svg"
   xmlns:sodipodi="http://sodipodi.sourceforge.net/DTD/sodipodi-0.dtd"
   xmlns:inkscape="http://www.inkscape.org/namespaces/inkscape"
   version="1.1"
   id="Capa_1"
   x="0px"
   y="0px"
   viewBox="0 0 204 204"
   style="enable-background:new 0 0 204 204;"
   xml:space="preserve"
   sodipodi:docname="resource.svg"
   inkscape:version="1.0.2 (e86c870879, 2021-01-15)"><metadata
   id="metadata2986"><rdf:RDF><cc:Work
       rdf:about=""><dc:format>image/svg+xml</dc:format><dc:type
         rdf:resource="http://purl.org/dc/dcmitype/StillImage" /><dc:title></dc:title></cc:Work></rdf:RDF></metadata><defs
   id="defs2984" /><sodipodi:namedview
   pagecolor="#ffffff"
   bordercolor="#666666"
   borderopacity="1"
   objecttolerance="10"
   gridtolerance="10"
   guidetolerance="10"
   inkscape:pageopacity="0"
   inkscape:pageshadow="2"
   inkscape:window-width="1600"
   inkscape:window-height="837"
   id="namedview2982"
   showgrid="false"
   inkscape:zoom="3.2843137"
   inkscape:cx="31.81791"
   inkscape:cy="102"
   inkscape:window-x="-8"
   inkscape:window-y="-8"
   inkscape:window-maximized="1"
   inkscape:current-layer="Capa_1" />
<path
   d="M139.185,157.339h25.175l-27.222,29.022v-26.974C137.137,158.257,138.056,157.339,139.185,157.339z M127.137,204H29.482  c-2.761,0-5-2.239-5-5V5c0-2.761,2.239-5,5-5h145.036c2.761,0,5,2.239,5,5v142.339h-40.333c-6.643,0-12.047,5.405-12.047,12.048V204  z M48.25,29c0,2.761,2.239,5,5,5h87.5c2.761,0,5-2.239,5-5s-2.239-5-5-5h-87.5C50.489,24,48.25,26.239,48.25,29z M48.25,59.5  c0,2.761,2.239,5,5,5h87.5c2.761,0,5-2.239,5-5s-2.239-5-5-5h-87.5C50.489,54.5,48.25,56.739,48.25,59.5z M48.25,90  c0,2.761,2.239,5,5,5h71.907c2.761,0,5-2.239,5-5s-2.239-5-5-5H53.25C50.489,85,48.25,87.239,48.25,90z M53.25,125.5h99.625  c2.761,0,5-2.239,5-5s-2.239-5-5-5H53.25c-2.761,0-5,2.239-5,5S50.489,125.5,53.25,125.5z"
   id="path2949"
   style="fill:#d9702f;fill-opacity:1" />
<g
   id="g2951">
</g>
<g
   id="g2953">
</g>
<g
   id="g2955">
</g>
<g
   id="g2957">
</g>
<g
   id="g2959">
</g>
<g
   id="g2961">
</g>
<g
   id="g2963">
</g>
<g
   id="g2965">
</g>
<g
   id="g2967">
</g>
<g
   id="g2969">
</g>
<g
   id="g2971">
</g>
<g
   id="g2973">
</g>
<g
   id="g2975">
</g>
<g
   id="g2977">
</g>
<g
   id="g2979">
</g>
</svg>
