<?xml version="1.0" encoding="UTF-8" standalone="no"?>
<svg
   xmlns:dc="http://purl.org/dc/elements/1.1/"
   xmlns:cc="http://creativecommons.org/ns#"
   xmlns:rdf="http://www.w3.org/1999/02/22-rdf-syntax-ns#"
   xmlns:svg="http://www.w3.org/2000/svg"
   xmlns="http://www.w3.org/2000/svg"
   xmlns:sodipodi="http://sodipodi.sourceforge.net/DTD/sodipodi-0.dtd"
   xmlns:inkscape="http://www.inkscape.org/namespaces/inkscape"
   version="1.1"
   id="Capa_1"
   x="0px"
   y="0px"
   viewBox="0 0 490 490"
   style="enable-background:new 0 0 490 490;"
   xml:space="preserve"
   sodipodi:docname="vocab.svg"
   inkscape:version="1.0.2 (e86c870879, 2021-01-15)"><metadata
   id="metadata2282"><rdf:RDF><cc:Work
       rdf:about=""><dc:format>image/svg+xml</dc:format><dc:type
         rdf:resource="http://purl.org/dc/dcmitype/StillImage" /><dc:title></dc:title></cc:Work></rdf:RDF></metadata><defs
   id="defs2280" /><sodipodi:namedview
   pagecolor="#ffffff"
   bordercolor="#666666"
   borderopacity="1"
   objecttolerance="10"
   gridtolerance="10"
   guidetolerance="10"
   inkscape:pageopacity="0"
   inkscape:pageshadow="2"
   inkscape:window-width="1600"
   inkscape:window-height="837"
   id="namedview2278"
   showgrid="false"
   inkscape:zoom="1.3673469"
   inkscape:cx="245"
   inkscape:cy="245"
   inkscape:window-x="-8"
   inkscape:window-y="-8"
   inkscape:window-maximized="1"
   inkscape:current-layer="g2245" />
<g
   id="g2245">
	<path
   d="M230.765,367.308c18.675,0,36.048-5.591,50.626-15.118l46.327,47.416l21.891-21.412l-45.686-46.76   c12.296-15.751,19.698-35.5,19.698-56.982c0-51.198-41.658-92.856-92.856-92.856c-51.198,0-92.856,41.658-92.856,92.856   C137.909,325.65,179.567,367.308,230.765,367.308z M230.765,212.219c34.316,0,62.233,27.917,62.233,62.233   c0,34.316-27.917,62.233-62.233,62.233c-34.316,0-62.233-27.917-62.233-62.233C168.532,240.136,196.449,212.219,230.765,212.219z"
   id="path2241"
   style="fill:#d9702f;fill-opacity:1" />
	<path
   d="M434.948,98.194h-20.868c-5.485-7.068-18.384-29.641,0.796-67.571h11.983V0H119.334C83.888,0,55.052,28.904,55.052,64.416   v342.806c0,28.993,8,51.093,23.767,65.687C95.641,488.46,115.483,490,122.272,490c1.286,0,2.101-0.045,2.34-0.075h310.336V98.194z    M119.334,30.623h262.1c-1.518,3.974-2.77,7.822-3.783,11.559h-169.02v30.623h165.511c0.532,9.829,2.604,18.348,5.356,25.39   H119.334c-18.556,0-33.659-15.147-33.659-33.778C85.675,45.785,100.777,30.623,119.334,30.623z M404.325,459.302l-280.902,0.045   c-0.127-0.045-13.517,0.598-23.805-8.927c-9.256-8.553-13.943-23.087-13.943-43.198V119.263c9.794,6.056,21.33,9.555,33.659,9.555   h284.991V459.302z"
   id="path2243"
   style="fill:#d9702f;fill-opacity:1" />
</g>
<g
   id="g2247">
</g>
<g
   id="g2249">
</g>
<g
   id="g2251">
</g>
<g
   id="g2253">
</g>
<g
   id="g2255">
</g>
<g
   id="g2257">
</g>
<g
   id="g2259">
</g>
<g
   id="g2261">
</g>
<g
   id="g2263">
</g>
<g
   id="g2265">
</g>
<g
   id="g2267">
</g>
<g
   id="g2269">
</g>
<g
   id="g2271">
</g>
<g
   id="g2273">
</g>
<g
   id="g2275">
</g>
</svg>
