<?xml version="1.0" encoding="UTF-8" standalone="no"?>
<svg
   xmlns:dc="http://purl.org/dc/elements/1.1/"
   xmlns:cc="http://creativecommons.org/ns#"
   xmlns:rdf="http://www.w3.org/1999/02/22-rdf-syntax-ns#"
   xmlns:svg="http://www.w3.org/2000/svg"
   xmlns="http://www.w3.org/2000/svg"
   xmlns:sodipodi="http://sodipodi.sourceforge.net/DTD/sodipodi-0.dtd"
   xmlns:inkscape="http://www.inkscape.org/namespaces/inkscape"
   version="1.1"
   id="Capa_1"
   x="0px"
   y="0px"
   width="969.486px"
   height="969.486px"
   viewBox="0 0 969.486 969.486"
   style="enable-background:new 0 0 969.486 969.486;"
   xml:space="preserve"
   sodipodi:docname="walle.svg"
   inkscape:version="1.0.2 (e86c870879, 2021-01-15)"><metadata
   id="metadata1528"><rdf:RDF><cc:Work
       rdf:about=""><dc:format>image/svg+xml</dc:format><dc:type
         rdf:resource="http://purl.org/dc/dcmitype/StillImage" /><dc:title></dc:title></cc:Work></rdf:RDF></metadata><defs
   id="defs1526" /><sodipodi:namedview
   pagecolor="#ffffff"
   bordercolor="#666666"
   borderopacity="1"
   objecttolerance="10"
   gridtolerance="10"
   guidetolerance="10"
   inkscape:pageopacity="0"
   inkscape:pageshadow="2"
   inkscape:window-width="1600"
   inkscape:window-height="837"
   id="namedview1524"
   showgrid="false"
   inkscape:zoom="0.69108784"
   inkscape:cx="484.74301"
   inkscape:cy="484.74301"
   inkscape:window-x="-8"
   inkscape:window-y="-8"
   inkscape:window-maximized="1"
   inkscape:current-layer="g1489" />
<g
   id="g1491">
	<g
   id="g1489"
   style="fill:#ff6600">
		<path
   d="M806.582,235.309L766.137,87.125l-137.434,37.51L571.451,9.072L114.798,235.309H0v725.105h907.137V764.973h62.35v-337.53    h-62.352V235.309H806.582z M718.441,170.63l17.654,64.68h-52.561h-75.887h-126.19l111.159-30.339l66.848-18.245L718.441,170.63z     M839.135,892.414H68V522.062v-129.13v-10.233v-69.787v-9.602h35.181h27.538h101.592h409.025h75.889h37.43h35.242h35.244h13.994    v51.272v72.86h-15.357h-35.244h-87.85H547.508h-55.217v27.356v75.888v8.758v35.244v35.244v155.039h346.846v127.441H839.135z     M901.486,696.973h-28.352h-34H560.291V591.375v-35.244v-35.244v-23.889v-1.555h3.139h90.086h129.129h56.492h34h4.445h23.904    V696.973z M540.707,100.191l21.15,42.688l-238.955,65.218L540.707,100.191z"
   id="path1485"
   style="fill:#d9702f;fill-opacity:1" />
		<polygon
   points="614.146,564.57 614.146,576.676 614.146,631.152 680.73,631.152 680.73,564.57 658.498,564.57   "
   id="polygon1487"
   style="fill:#d9702f;fill-opacity:1" />
	</g>
</g>
<g
   id="g1493">
</g>
<g
   id="g1495">
</g>
<g
   id="g1497">
</g>
<g
   id="g1499">
</g>
<g
   id="g1501">
</g>
<g
   id="g1503">
</g>
<g
   id="g1505">
</g>
<g
   id="g1507">
</g>
<g
   id="g1509">
</g>
<g
   id="g1511">
</g>
<g
   id="g1513">
</g>
<g
   id="g1515">
</g>
<g
   id="g1517">
</g>
<g
   id="g1519">
</g>
<g
   id="g1521">
</g>
</svg>
